<mxfile host="65bd71144e">
    <diagram name="PÃ¡gina-1" id="RIEEq9NSBeRir77tMhl3">
        <mxGraphModel dx="2555" dy="1030" grid="1" gridSize="10" guides="1" tooltips="1" connect="1" arrows="1" fold="1" page="1" pageScale="1" pageWidth="827" pageHeight="1169" math="0" shadow="0">
            <root>
                <mxCell id="0"/>
                <mxCell id="1" parent="0"/>
                <mxCell id="RMw8YCrxrhKPK7vOaBMo-37" value="Nube" style="rounded=1;whiteSpace=wrap;html=1;align=left;verticalAlign=top;fontColor=#0066CC;dashed=1;strokeColor=#3399FF;arcSize=2;" parent="1" vertex="1">
                    <mxGeometry x="32.92" y="180" width="1280" height="1360" as="geometry"/>
                </mxCell>
                <mxCell id="RMw8YCrxrhKPK7vOaBMo-17" value="Subscription Wallet" style="rounded=1;whiteSpace=wrap;html=1;align=left;verticalAlign=top;fontColor=#0066CC;dashed=1;strokeColor=#3399FF;" parent="1" vertex="1">
                    <mxGeometry x="62.92" y="330" width="1230" height="140" as="geometry"/>
                </mxCell>
                <mxCell id="RMw8YCrxrhKPK7vOaBMo-154" value="" style="rounded=1;whiteSpace=wrap;html=1;strokeColor=#3399FF;dashed=1;" parent="1" vertex="1">
                    <mxGeometry x="707.84" y="355" width="512.16" height="100" as="geometry"/>
                </mxCell>
                <mxCell id="RMw8YCrxrhKPK7vOaBMo-153" value="" style="rounded=1;whiteSpace=wrap;html=1;strokeColor=#3399FF;dashed=1;align=left;" parent="1" vertex="1">
                    <mxGeometry x="79.92" y="355" width="510.08" height="100" as="geometry"/>
                </mxCell>
                <mxCell id="RMw8YCrxrhKPK7vOaBMo-118" style="edgeStyle=orthogonalEdgeStyle;rounded=0;orthogonalLoop=1;jettySize=auto;html=1;exitX=0;exitY=0.5;exitDx=0;exitDy=0;entryX=1;entryY=0.5;entryDx=0;entryDy=0;startArrow=classic;startFill=1;strokeColor=#3399FF;" parent="1" source="RMw8YCrxrhKPK7vOaBMo-117" target="RMw8YCrxrhKPK7vOaBMo-61" edge="1">
                    <mxGeometry relative="1" as="geometry"/>
                </mxCell>
                <mxCell id="RMw8YCrxrhKPK7vOaBMo-117" value="KeyVault" style="rounded=1;whiteSpace=wrap;html=1;align=left;verticalAlign=top;fontColor=#0066CC;dashed=1;strokeColor=#3399FF;fillColor=default;" parent="1" vertex="1">
                    <mxGeometry x="1032.92" y="749" width="230" height="100" as="geometry"/>
                </mxCell>
                <mxCell id="RMw8YCrxrhKPK7vOaBMo-61" value="AKS Cluster" style="rounded=1;whiteSpace=wrap;html=1;align=left;verticalAlign=bottom;fontColor=#0066CC;dashed=1;strokeColor=#3399FF;arcSize=5;" parent="1" vertex="1">
                    <mxGeometry x="92.92" y="625" width="890" height="250" as="geometry"/>
                </mxCell>
                <mxCell id="RMw8YCrxrhKPK7vOaBMo-60" value="" style="rounded=1;whiteSpace=wrap;html=1;align=left;verticalAlign=top;fontColor=#0066CC;dashed=1;strokeColor=#3399FF;fillColor=none;" parent="1" vertex="1">
                    <mxGeometry x="134.49999999999997" y="650" width="180" height="170" as="geometry"/>
                </mxCell>
                <mxCell id="RMw8YCrxrhKPK7vOaBMo-59" value="" style="rounded=1;whiteSpace=wrap;html=1;align=left;verticalAlign=top;fontColor=#0066CC;dashed=1;strokeColor=#3399FF;fillColor=none;" parent="1" vertex="1">
                    <mxGeometry x="328.34000000000003" y="650" width="180" height="170" as="geometry"/>
                </mxCell>
                <mxCell id="RMw8YCrxrhKPK7vOaBMo-58" value="" style="rounded=1;whiteSpace=wrap;html=1;align=left;verticalAlign=top;fontColor=#0066CC;dashed=1;strokeColor=#3399FF;fillColor=none;" parent="1" vertex="1">
                    <mxGeometry x="540.8399999999999" y="650" width="180" height="170" as="geometry"/>
                </mxCell>
                <mxCell id="RMw8YCrxrhKPK7vOaBMo-57" value="" style="rounded=1;whiteSpace=wrap;html=1;align=left;verticalAlign=top;fontColor=#0066CC;dashed=1;strokeColor=#3399FF;fillColor=none;" parent="1" vertex="1">
                    <mxGeometry x="753.8399999999999" y="650" width="180" height="170" as="geometry"/>
                </mxCell>
                <mxCell id="RMw8YCrxrhKPK7vOaBMo-48" value="PODs" style="rounded=1;whiteSpace=wrap;html=1;align=left;verticalAlign=top;fontColor=#0066CC;dashed=1;strokeColor=#3399FF;fillColor=#FFFFFF;" parent="1" vertex="1">
                    <mxGeometry x="554.5" y="659" width="180" height="170" as="geometry"/>
                </mxCell>
                <mxCell id="RMw8YCrxrhKPK7vOaBMo-49" value="PODs" style="rounded=1;whiteSpace=wrap;html=1;align=left;verticalAlign=top;dashed=1;strokeColor=#3399ff;" parent="1" vertex="1">
                    <mxGeometry x="763.8399999999999" y="659" width="180" height="170" as="geometry"/>
                </mxCell>
                <mxCell id="RMw8YCrxrhKPK7vOaBMo-47" value="PODs" style="rounded=1;whiteSpace=wrap;html=1;align=left;verticalAlign=top;fontColor=#0066CC;dashed=1;strokeColor=#3399FF;fillColor=default;" parent="1" vertex="1">
                    <mxGeometry x="341.34000000000003" y="659" width="180" height="170" as="geometry"/>
                </mxCell>
                <mxCell id="RMw8YCrxrhKPK7vOaBMo-46" value="PODs" style="rounded=1;whiteSpace=wrap;html=1;align=left;verticalAlign=top;fontColor=#0066CC;dashed=1;strokeColor=#3399FF;fillColor=default;" parent="1" vertex="1">
                    <mxGeometry x="143.84" y="659" width="180" height="170" as="geometry"/>
                </mxCell>
                <mxCell id="RMw8YCrxrhKPK7vOaBMo-1" value="" style="rounded=1;whiteSpace=wrap;html=1;fontColor=#00FF80;strokeColor=#3399FF;strokeWidth=1;dashed=1;" parent="1" vertex="1">
                    <mxGeometry x="328.84000000000003" y="45" width="170.32" height="110" as="geometry"/>
                </mxCell>
                <mxCell id="RMw8YCrxrhKPK7vOaBMo-5" value="iOS" style="text;html=1;align=center;verticalAlign=middle;resizable=0;points=[];autosize=1;strokeColor=none;fillColor=none;fontColor=#0066CC;" parent="1" vertex="1">
                    <mxGeometry x="360.8400000000001" y="125" width="40" height="30" as="geometry"/>
                </mxCell>
                <mxCell id="RMw8YCrxrhKPK7vOaBMo-176" style="edgeStyle=orthogonalEdgeStyle;rounded=0;orthogonalLoop=1;jettySize=auto;html=1;startArrow=classic;startFill=1;strokeColor=#3399FF;" parent="1" source="RMw8YCrxrhKPK7vOaBMo-9" target="RMw8YCrxrhKPK7vOaBMo-169" edge="1">
                    <mxGeometry relative="1" as="geometry"/>
                </mxCell>
                <mxCell id="RMw8YCrxrhKPK7vOaBMo-9" value="Android" style="text;html=1;align=center;verticalAlign=middle;resizable=0;points=[];autosize=1;strokeColor=none;fillColor=none;fontColor=#0066CC;" parent="1" vertex="1">
                    <mxGeometry x="410.8400000000001" y="125" width="60" height="30" as="geometry"/>
                </mxCell>
                <mxCell id="RMw8YCrxrhKPK7vOaBMo-10" value="" style="verticalLabelPosition=bottom;html=1;verticalAlign=top;align=center;strokeColor=none;fillColor=#00BEF2;shape=mxgraph.azure.mobile;pointerEvents=1;" parent="1" vertex="1">
                    <mxGeometry x="363.3400000000001" y="65" width="35" height="50" as="geometry"/>
                </mxCell>
                <mxCell id="RMw8YCrxrhKPK7vOaBMo-11" value="" style="verticalLabelPosition=bottom;html=1;verticalAlign=top;align=center;strokeColor=none;fillColor=#00BEF2;shape=mxgraph.azure.mobile;pointerEvents=1;" parent="1" vertex="1">
                    <mxGeometry x="423.3400000000001" y="65" width="35" height="50" as="geometry"/>
                </mxCell>
                <mxCell id="RMw8YCrxrhKPK7vOaBMo-16" value="API Gateway UX (Servicios compartidos)" style="rounded=1;whiteSpace=wrap;html=1;align=left;verticalAlign=top;fontColor=#0066CC;dashed=1;strokeColor=#3399FF;" parent="1" vertex="1">
                    <mxGeometry x="62.92" y="200" width="1230" height="100" as="geometry"/>
                </mxCell>
                <mxCell id="RMw8YCrxrhKPK7vOaBMo-165" style="edgeStyle=orthogonalEdgeStyle;rounded=0;orthogonalLoop=1;jettySize=auto;html=1;exitX=0.5;exitY=1;exitDx=0;exitDy=0;strokeColor=#3399FF;" parent="1" source="RMw8YCrxrhKPK7vOaBMo-14" target="RMw8YCrxrhKPK7vOaBMo-153" edge="1">
                    <mxGeometry relative="1" as="geometry"/>
                </mxCell>
                <mxCell id="RMw8YCrxrhKPK7vOaBMo-14" value="API UX Wallet Mobile" style="rounded=1;whiteSpace=wrap;html=1;fillColor=#dae8fc;strokeColor=#6c8ebf;" parent="1" vertex="1">
                    <mxGeometry x="279" y="227.92" width="270" height="40" as="geometry"/>
                </mxCell>
                <mxCell id="RMw8YCrxrhKPK7vOaBMo-20" value="Wallet&lt;div&gt;MS UX&lt;/div&gt;" style="rounded=1;whiteSpace=wrap;html=1;fillColor=#ffe6cc;strokeColor=#d79b00;" parent="1" vertex="1">
                    <mxGeometry x="843.2599999999999" y="375" width="107" height="60" as="geometry"/>
                </mxCell>
                <mxCell id="RMw8YCrxrhKPK7vOaBMo-21" value="Transaction&lt;div&gt;MS UX&lt;/div&gt;" style="rounded=1;whiteSpace=wrap;html=1;fillColor=#dae8fc;strokeColor=#6c8ebf;" parent="1" vertex="1">
                    <mxGeometry x="726.2599999999999" y="375" width="107" height="60" as="geometry"/>
                </mxCell>
                <mxCell id="RMw8YCrxrhKPK7vOaBMo-23" value="Notification&lt;div&gt;&lt;span style=&quot;background-color: initial;&quot;&gt;MS UX&lt;/span&gt;&lt;/div&gt;" style="rounded=1;whiteSpace=wrap;html=1;fillColor=#f8cecc;strokeColor=#b85450;" parent="1" vertex="1">
                    <mxGeometry x="1095.92" y="375" width="107" height="60" as="geometry"/>
                </mxCell>
                <mxCell id="RMw8YCrxrhKPK7vOaBMo-34" value="API Gateway BS (Servicios compartidos)" style="rounded=1;whiteSpace=wrap;html=1;align=left;verticalAlign=top;fontColor=#0066CC;dashed=1;strokeColor=#3399FF;" parent="1" vertex="1">
                    <mxGeometry x="62.92" y="501" width="1230" height="80" as="geometry"/>
                </mxCell>
                <mxCell id="RMw8YCrxrhKPK7vOaBMo-35" value="" style="image;aspect=fixed;html=1;points=[];align=center;fontSize=12;image=img/lib/azure2/app_services/API_Management_Services.svg;" parent="1" vertex="1">
                    <mxGeometry x="832.0899999999999" y="516" width="48.75" height="45" as="geometry"/>
                </mxCell>
                <mxCell id="RMw8YCrxrhKPK7vOaBMo-168" style="edgeStyle=orthogonalEdgeStyle;rounded=0;orthogonalLoop=1;jettySize=auto;html=1;startArrow=classic;startFill=1;strokeColor=#3399FF;" parent="1" source="RMw8YCrxrhKPK7vOaBMo-36" target="RMw8YCrxrhKPK7vOaBMo-61" edge="1">
                    <mxGeometry relative="1" as="geometry"/>
                </mxCell>
                <mxCell id="RMw8YCrxrhKPK7vOaBMo-36" value="API BS Wallet" style="rounded=1;whiteSpace=wrap;html=1;fillColor=#dae8fc;strokeColor=#6c8ebf;" parent="1" vertex="1">
                    <mxGeometry x="532.92" y="521" width="270" height="40" as="geometry"/>
                </mxCell>
                <mxCell id="RMw8YCrxrhKPK7vOaBMo-38" value="Wallet&lt;div&gt;MS BS&lt;/div&gt;" style="rounded=1;whiteSpace=wrap;html=1;fillColor=#ffe6cc;strokeColor=#d79b00;" parent="1" vertex="1">
                    <mxGeometry x="163.84" y="694" width="140" height="60" as="geometry"/>
                </mxCell>
                <mxCell id="RMw8YCrxrhKPK7vOaBMo-39" value="Transaction&lt;div&gt;MS BS&lt;/div&gt;" style="rounded=1;whiteSpace=wrap;html=1;fillColor=#dae8fc;strokeColor=#6c8ebf;" parent="1" vertex="1">
                    <mxGeometry x="357.84000000000003" y="694" width="140" height="60" as="geometry"/>
                </mxCell>
                <mxCell id="RMw8YCrxrhKPK7vOaBMo-114" style="edgeStyle=orthogonalEdgeStyle;rounded=0;orthogonalLoop=1;jettySize=auto;html=1;startArrow=classic;startFill=1;strokeColor=#3399FF;" parent="1" source="RMw8YCrxrhKPK7vOaBMo-40" target="RMw8YCrxrhKPK7vOaBMo-110" edge="1">
                    <mxGeometry relative="1" as="geometry">
                        <Array as="points">
                            <mxPoint x="646.92" y="610"/>
                            <mxPoint x="1172.92" y="610"/>
                        </Array>
                    </mxGeometry>
                </mxCell>
                <mxCell id="RMw8YCrxrhKPK7vOaBMo-119" value="Token CAS" style="edgeLabel;html=1;align=center;verticalAlign=middle;resizable=0;points=[];" parent="RMw8YCrxrhKPK7vOaBMo-114" vertex="1" connectable="0">
                    <mxGeometry x="-0.0331" y="1" relative="1" as="geometry">
                        <mxPoint as="offset"/>
                    </mxGeometry>
                </mxCell>
                <mxCell id="RMw8YCrxrhKPK7vOaBMo-40" value="Security&lt;div&gt;MS BS&lt;/div&gt;" style="rounded=1;whiteSpace=wrap;html=1;fillColor=#d5e8d4;strokeColor=#82b366;" parent="1" vertex="1">
                    <mxGeometry x="577.18" y="689" width="140" height="60" as="geometry"/>
                </mxCell>
                <mxCell id="RMw8YCrxrhKPK7vOaBMo-41" value="Notification&lt;div&gt;&lt;span style=&quot;background-color: initial;&quot;&gt;MS BS&lt;/span&gt;&lt;/div&gt;" style="rounded=1;whiteSpace=wrap;html=1;fillColor=#bac8d3;strokeColor=#23445d;" parent="1" vertex="1">
                    <mxGeometry x="783.8399999999999" y="689" width="140" height="60" as="geometry"/>
                </mxCell>
                <mxCell id="RMw8YCrxrhKPK7vOaBMo-42" value="PostgreSQL" style="shape=cylinder3;whiteSpace=wrap;html=1;boundedLbl=1;backgroundOutline=1;size=15;fillColor=#ffe6cc;strokeColor=#d79b00;" parent="1" vertex="1">
                    <mxGeometry x="196.33999999999997" y="970" width="75" height="60" as="geometry"/>
                </mxCell>
                <mxCell id="RMw8YCrxrhKPK7vOaBMo-127" style="edgeStyle=orthogonalEdgeStyle;rounded=0;orthogonalLoop=1;jettySize=auto;html=1;exitX=0.5;exitY=1;exitDx=0;exitDy=0;exitPerimeter=0;fontColor=#3399FF;strokeColor=#3399FF;" parent="1" source="RMw8YCrxrhKPK7vOaBMo-43" target="RMw8YCrxrhKPK7vOaBMo-122" edge="1">
                    <mxGeometry relative="1" as="geometry"/>
                </mxCell>
                <mxCell id="RMw8YCrxrhKPK7vOaBMo-43" value="CosmoDB" style="shape=cylinder3;whiteSpace=wrap;html=1;boundedLbl=1;backgroundOutline=1;size=15;fillColor=#dae8fc;strokeColor=#6c8ebf;" parent="1" vertex="1">
                    <mxGeometry x="390.34000000000003" y="970" width="75" height="60" as="geometry"/>
                </mxCell>
                <mxCell id="RMw8YCrxrhKPK7vOaBMo-44" value="SQL Server" style="shape=cylinder3;whiteSpace=wrap;html=1;boundedLbl=1;backgroundOutline=1;size=15;fillColor=#d5e8d4;strokeColor=#82b366;" parent="1" vertex="1">
                    <mxGeometry x="609.68" y="970" width="75" height="60" as="geometry"/>
                </mxCell>
                <mxCell id="RMw8YCrxrhKPK7vOaBMo-45" value="CosmoDB" style="shape=cylinder3;whiteSpace=wrap;html=1;boundedLbl=1;backgroundOutline=1;size=15;fillColor=#bac8d3;strokeColor=#23445d;" parent="1" vertex="1">
                    <mxGeometry x="815.92" y="970" width="75" height="60" as="geometry"/>
                </mxCell>
                <mxCell id="RMw8YCrxrhKPK7vOaBMo-50" value="" style="image;aspect=fixed;html=1;points=[];align=center;fontSize=12;image=img/lib/azure2/containers/Container_Instances.svg;" parent="1" vertex="1">
                    <mxGeometry x="152.34" y="779" width="44" height="47.44" as="geometry"/>
                </mxCell>
                <mxCell id="RMw8YCrxrhKPK7vOaBMo-51" value="" style="image;aspect=fixed;html=1;points=[];align=center;fontSize=12;image=img/lib/azure2/containers/Container_Instances.svg;" parent="1" vertex="1">
                    <mxGeometry x="364.34000000000003" y="779" width="44" height="47.44" as="geometry"/>
                </mxCell>
                <mxCell id="RMw8YCrxrhKPK7vOaBMo-52" value="" style="image;aspect=fixed;html=1;points=[];align=center;fontSize=12;image=img/lib/azure2/containers/Container_Instances.svg;" parent="1" vertex="1">
                    <mxGeometry x="574.3399999999999" y="779" width="44" height="47.44" as="geometry"/>
                </mxCell>
                <mxCell id="RMw8YCrxrhKPK7vOaBMo-53" value="" style="image;aspect=fixed;html=1;points=[];align=center;fontSize=12;image=img/lib/azure2/containers/Container_Instances.svg;" parent="1" vertex="1">
                    <mxGeometry x="779.8399999999999" y="779" width="44" height="47.44" as="geometry"/>
                </mxCell>
                <mxCell id="RMw8YCrxrhKPK7vOaBMo-62" value="Event Bus&lt;div&gt;(Publish/Subscribe Channel)&lt;/div&gt;" style="shape=cylinder3;whiteSpace=wrap;html=1;boundedLbl=1;backgroundOutline=1;size=15;rotation=90;horizontal=0;fillColor=#e1d5e7;strokeColor=#9673a6;" parent="1" vertex="1">
                    <mxGeometry x="549.68" y="1030" width="60" height="370" as="geometry"/>
                </mxCell>
                <mxCell id="RMw8YCrxrhKPK7vOaBMo-63" value="Distributed Cache" style="rounded=1;whiteSpace=wrap;html=1;fillColor=#f8cecc;strokeColor=#b85450;" parent="1" vertex="1">
                    <mxGeometry x="1072.92" y="880" width="130" height="70" as="geometry"/>
                </mxCell>
                <mxCell id="RMw8YCrxrhKPK7vOaBMo-65" value="" style="image;aspect=fixed;html=1;points=[];align=center;fontSize=12;image=img/lib/azure2/databases/Cache_Redis.svg;" parent="1" vertex="1">
                    <mxGeometry x="1102.92" y="960" width="64" height="52" as="geometry"/>
                </mxCell>
                <mxCell id="RMw8YCrxrhKPK7vOaBMo-71" value="" style="endArrow=classic;html=1;rounded=0;entryX=0;entryY=0.5;entryDx=0;entryDy=0;strokeColor=#3399FF;" parent="1" edge="1">
                    <mxGeometry width="50" height="50" relative="1" as="geometry">
                        <mxPoint x="232.92" y="910" as="sourcePoint"/>
                        <mxPoint x="1072.92" y="910" as="targetPoint"/>
                    </mxGeometry>
                </mxCell>
                <mxCell id="RMw8YCrxrhKPK7vOaBMo-73" style="edgeStyle=orthogonalEdgeStyle;rounded=0;orthogonalLoop=1;jettySize=auto;html=1;exitX=0.5;exitY=1;exitDx=0;exitDy=0;entryX=0.5;entryY=0;entryDx=0;entryDy=0;entryPerimeter=0;strokeColor=#3399FF;" parent="1" source="RMw8YCrxrhKPK7vOaBMo-46" target="RMw8YCrxrhKPK7vOaBMo-42" edge="1">
                    <mxGeometry relative="1" as="geometry"/>
                </mxCell>
                <mxCell id="RMw8YCrxrhKPK7vOaBMo-75" style="edgeStyle=orthogonalEdgeStyle;rounded=0;orthogonalLoop=1;jettySize=auto;html=1;exitX=0.5;exitY=1;exitDx=0;exitDy=0;entryX=0.5;entryY=0;entryDx=0;entryDy=0;entryPerimeter=0;strokeColor=#3399FF;" parent="1" edge="1">
                    <mxGeometry relative="1" as="geometry">
                        <mxPoint x="428.92" y="829" as="sourcePoint"/>
                        <mxPoint x="428.92" y="970" as="targetPoint"/>
                    </mxGeometry>
                </mxCell>
                <mxCell id="RMw8YCrxrhKPK7vOaBMo-77" style="edgeStyle=orthogonalEdgeStyle;rounded=0;orthogonalLoop=1;jettySize=auto;html=1;exitX=0.5;exitY=1;exitDx=0;exitDy=0;entryX=0.5;entryY=0;entryDx=0;entryDy=0;entryPerimeter=0;strokeColor=#3399FF;" parent="1" edge="1">
                    <mxGeometry relative="1" as="geometry">
                        <mxPoint x="646.65" y="829" as="sourcePoint"/>
                        <mxPoint x="646.65" y="970" as="targetPoint"/>
                    </mxGeometry>
                </mxCell>
                <mxCell id="RMw8YCrxrhKPK7vOaBMo-78" style="edgeStyle=orthogonalEdgeStyle;rounded=0;orthogonalLoop=1;jettySize=auto;html=1;exitX=0.5;exitY=1;exitDx=0;exitDy=0;entryX=0.5;entryY=0;entryDx=0;entryDy=0;entryPerimeter=0;strokeColor=#3399FF;" parent="1" edge="1">
                    <mxGeometry relative="1" as="geometry">
                        <mxPoint x="853.31" y="829" as="sourcePoint"/>
                        <mxPoint x="853.31" y="970" as="targetPoint"/>
                    </mxGeometry>
                </mxCell>
                <mxCell id="RMw8YCrxrhKPK7vOaBMo-79" value="" style="image;aspect=fixed;html=1;points=[];align=center;fontSize=12;image=img/lib/azure2/databases/Azure_Database_PostgreSQL_Server.svg;" parent="1" vertex="1">
                    <mxGeometry x="270.92" y="1020" width="30" height="40" as="geometry"/>
                </mxCell>
                <mxCell id="RMw8YCrxrhKPK7vOaBMo-80" value="" style="image;sketch=0;aspect=fixed;html=1;points=[];align=center;fontSize=12;image=img/lib/mscae/CosmosDB.svg;" parent="1" vertex="1">
                    <mxGeometry x="465.34000000000003" y="1010" width="50" height="50" as="geometry"/>
                </mxCell>
                <mxCell id="RMw8YCrxrhKPK7vOaBMo-81" value="" style="image;sketch=0;aspect=fixed;html=1;points=[];align=center;fontSize=12;image=img/lib/mscae/CosmosDB.svg;" parent="1" vertex="1">
                    <mxGeometry x="893.84" y="1010" width="50" height="50" as="geometry"/>
                </mxCell>
                <mxCell id="RMw8YCrxrhKPK7vOaBMo-82" value="" style="verticalLabelPosition=bottom;html=1;verticalAlign=top;align=center;strokeColor=none;fillColor=#00BEF2;shape=mxgraph.azure.sql_database;" parent="1" vertex="1">
                    <mxGeometry x="686.92" y="1010" width="37.5" height="50" as="geometry"/>
                </mxCell>
                <mxCell id="RMw8YCrxrhKPK7vOaBMo-83" value="" style="endArrow=none;html=1;rounded=0;exitX=0.748;exitY=0.754;exitDx=0;exitDy=0;exitPerimeter=0;entryX=0.143;entryY=0.754;entryDx=0;entryDy=0;entryPerimeter=0;strokeColor=#3399FF;" parent="1" edge="1">
                    <mxGeometry width="50" height="50" relative="1" as="geometry">
                        <mxPoint x="967.0399999999998" y="1110.26" as="sourcePoint"/>
                        <mxPoint x="247.09000000000006" y="1110.26" as="targetPoint"/>
                    </mxGeometry>
                </mxCell>
                <mxCell id="RMw8YCrxrhKPK7vOaBMo-84" value="" style="endArrow=classic;html=1;rounded=0;entryX=0;entryY=0;entryDx=0;entryDy=270;entryPerimeter=0;strokeColor=#3399FF;" parent="1" target="RMw8YCrxrhKPK7vOaBMo-62" edge="1">
                    <mxGeometry width="50" height="50" relative="1" as="geometry">
                        <mxPoint x="302.92" y="1110" as="sourcePoint"/>
                        <mxPoint x="612.92" y="1000" as="targetPoint"/>
                    </mxGeometry>
                </mxCell>
                <mxCell id="RMw8YCrxrhKPK7vOaBMo-85" value="" style="endArrow=classic;html=1;rounded=0;exitX=0;exitY=0;exitDx=0;exitDy=100;exitPerimeter=0;strokeColor=#3399FF;" parent="1" source="RMw8YCrxrhKPK7vOaBMo-62" edge="1">
                    <mxGeometry width="50" height="50" relative="1" as="geometry">
                        <mxPoint x="562.92" y="1050" as="sourcePoint"/>
                        <mxPoint x="872.92" y="1110" as="targetPoint"/>
                    </mxGeometry>
                </mxCell>
                <mxCell id="RMw8YCrxrhKPK7vOaBMo-90" value="" style="endArrow=none;html=1;rounded=0;jumpSize=6;strokeColor=#3399FF;" parent="1" edge="1">
                    <mxGeometry width="50" height="50" relative="1" as="geometry">
                        <mxPoint x="332.92" y="1110" as="sourcePoint"/>
                        <mxPoint x="332.92" y="910" as="targetPoint"/>
                    </mxGeometry>
                </mxCell>
                <mxCell id="RMw8YCrxrhKPK7vOaBMo-91" value="" style="endArrow=none;html=1;rounded=0;strokeColor=#3399FF;" parent="1" edge="1">
                    <mxGeometry width="50" height="50" relative="1" as="geometry">
                        <mxPoint x="556.92" y="1110" as="sourcePoint"/>
                        <mxPoint x="556.92" y="910" as="targetPoint"/>
                    </mxGeometry>
                </mxCell>
                <mxCell id="RMw8YCrxrhKPK7vOaBMo-92" value="" style="endArrow=none;html=1;rounded=0;strokeColor=#3399FF;" parent="1" edge="1">
                    <mxGeometry width="50" height="50" relative="1" as="geometry">
                        <mxPoint x="779.8399999999999" y="1110" as="sourcePoint"/>
                        <mxPoint x="779.92" y="910" as="targetPoint"/>
                    </mxGeometry>
                </mxCell>
                <mxCell id="RMw8YCrxrhKPK7vOaBMo-95" value="" style="html=1;verticalLabelPosition=bottom;align=center;labelBackgroundColor=#ffffff;verticalAlign=top;strokeWidth=2;strokeColor=#0080F0;shadow=0;dashed=0;shape=mxgraph.ios7.icons.mail;" parent="1" vertex="1">
                    <mxGeometry x="434.92" y="1140" width="30" height="16.5" as="geometry"/>
                </mxCell>
                <mxCell id="RMw8YCrxrhKPK7vOaBMo-96" value="" style="html=1;verticalLabelPosition=bottom;align=center;labelBackgroundColor=#ffffff;verticalAlign=top;strokeWidth=2;strokeColor=#0080F0;shadow=0;dashed=0;shape=mxgraph.ios7.icons.mail;" parent="1" vertex="1">
                    <mxGeometry x="724.42" y="1130" width="30" height="16.5" as="geometry"/>
                </mxCell>
                <mxCell id="RMw8YCrxrhKPK7vOaBMo-97" value="On-Premise" style="rounded=1;whiteSpace=wrap;html=1;align=left;verticalAlign=top;fontColor=#0066CC;dashed=1;strokeColor=#3399FF;arcSize=2;" parent="1" vertex="1">
                    <mxGeometry x="30" y="1640" width="1280" height="210" as="geometry"/>
                </mxCell>
                <mxCell id="RMw8YCrxrhKPK7vOaBMo-98" value="Servicios compartidos" style="rounded=1;whiteSpace=wrap;html=1;align=left;verticalAlign=top;fontColor=#0066CC;dashed=1;strokeColor=#3399FF;fillColor=default;" parent="1" vertex="1">
                    <mxGeometry x="237.26" y="1270" width="706" height="100" as="geometry"/>
                </mxCell>
                <mxCell id="RMw8YCrxrhKPK7vOaBMo-99" value="APIS CORE" style="rounded=1;whiteSpace=wrap;html=1;fillColor=#f8cecc;strokeColor=#b85450;" parent="1" vertex="1">
                    <mxGeometry x="323.84000000000003" y="1290" width="516.58" height="60" as="geometry"/>
                </mxCell>
                <mxCell id="RMw8YCrxrhKPK7vOaBMo-100" value="" style="image;aspect=fixed;html=1;points=[];align=center;fontSize=12;image=img/lib/azure2/containers/Container_Instances.svg;" parent="1" vertex="1">
                    <mxGeometry x="245.42" y="1312" width="44" height="47.44" as="geometry"/>
                </mxCell>
                <mxCell id="RMw8YCrxrhKPK7vOaBMo-102" value="" style="endArrow=classic;startArrow=classic;html=1;rounded=0;entryX=0.25;entryY=1;entryDx=0;entryDy=0;exitX=0.153;exitY=0.046;exitDx=0;exitDy=0;exitPerimeter=0;strokeColor=#3399FF;" parent="1" source="RMw8YCrxrhKPK7vOaBMo-98" target="RMw8YCrxrhKPK7vOaBMo-47" edge="1">
                    <mxGeometry width="50" height="50" relative="1" as="geometry">
                        <mxPoint x="682.92" y="1070" as="sourcePoint"/>
                        <mxPoint x="732.92" y="1020" as="targetPoint"/>
                        <Array as="points">
                            <mxPoint x="344.92" y="930"/>
                            <mxPoint x="385.92" y="930"/>
                        </Array>
                    </mxGeometry>
                </mxCell>
                <mxCell id="RMw8YCrxrhKPK7vOaBMo-103" value="ZConnect&lt;div&gt;Servicios REST&lt;/div&gt;" style="rounded=1;whiteSpace=wrap;html=1;fillColor=#f5f5f5;strokeColor=#666666;fontColor=#333333;" parent="1" vertex="1">
                    <mxGeometry x="331.97" y="1670" width="516.58" height="60" as="geometry"/>
                </mxCell>
                <mxCell id="RMw8YCrxrhKPK7vOaBMo-104" value="Mainframe" style="rounded=1;whiteSpace=wrap;html=1;fillColor=#b0e3e6;strokeColor=#0e8088;" parent="1" vertex="1">
                    <mxGeometry x="334.55" y="1764" width="516.58" height="60" as="geometry"/>
                </mxCell>
                <mxCell id="RMw8YCrxrhKPK7vOaBMo-105" value="" style="endArrow=classic;startArrow=classic;html=1;rounded=0;entryX=0.5;entryY=0;entryDx=0;entryDy=0;exitX=0.5;exitY=1;exitDx=0;exitDy=0;strokeColor=#3399FF;" parent="1" source="RMw8YCrxrhKPK7vOaBMo-103" target="RMw8YCrxrhKPK7vOaBMo-104" edge="1">
                    <mxGeometry width="50" height="50" relative="1" as="geometry">
                        <mxPoint x="682.92" y="1520" as="sourcePoint"/>
                        <mxPoint x="732.92" y="1470" as="targetPoint"/>
                    </mxGeometry>
                </mxCell>
                <mxCell id="RMw8YCrxrhKPK7vOaBMo-110" value="CIAM" style="rounded=1;whiteSpace=wrap;html=1;align=left;verticalAlign=top;fontColor=#0066CC;dashed=1;strokeColor=#3399FF;fillColor=default;" parent="1" vertex="1">
                    <mxGeometry x="1032.92" y="630" width="230" height="100" as="geometry"/>
                </mxCell>
                <mxCell id="RMw8YCrxrhKPK7vOaBMo-111" value="CAS(Central Autorization Service)" style="rounded=1;whiteSpace=wrap;html=1;fillColor=#bac8d3;strokeColor=#23445d;" parent="1" vertex="1">
                    <mxGeometry x="1077.92" y="650" width="140" height="60" as="geometry"/>
                </mxCell>
                <mxCell id="RMw8YCrxrhKPK7vOaBMo-116" value="" style="image;aspect=fixed;html=1;points=[];align=center;fontSize=12;image=img/lib/azure2/security/Key_Vaults.svg;" parent="1" vertex="1">
                    <mxGeometry x="1113.92" y="765" width="68" height="68" as="geometry"/>
                </mxCell>
                <mxCell id="RMw8YCrxrhKPK7vOaBMo-120" value="Storage Account" style="rounded=1;whiteSpace=wrap;html=1;align=left;verticalAlign=top;fontColor=#0066CC;dashed=1;strokeColor=#3399FF;fillColor=default;" parent="1" vertex="1">
                    <mxGeometry x="1024.42" y="1230" width="230" height="100" as="geometry"/>
                </mxCell>
                <mxCell id="RMw8YCrxrhKPK7vOaBMo-121" value="" style="image;aspect=fixed;html=1;points=[];align=center;fontSize=12;image=img/lib/azure2/storage/Storage_Accounts.svg;" parent="1" vertex="1">
                    <mxGeometry x="1108.42" y="1260" width="65" height="52" as="geometry"/>
                </mxCell>
                <mxCell id="RMw8YCrxrhKPK7vOaBMo-128" style="edgeStyle=orthogonalEdgeStyle;rounded=0;orthogonalLoop=1;jettySize=auto;html=1;entryX=0.5;entryY=0;entryDx=0;entryDy=0;strokeColor=#3399FF;" parent="1" source="RMw8YCrxrhKPK7vOaBMo-122" target="RMw8YCrxrhKPK7vOaBMo-120" edge="1">
                    <mxGeometry relative="1" as="geometry"/>
                </mxCell>
                <mxCell id="RMw8YCrxrhKPK7vOaBMo-122" value="Timer Trigger" style="image;aspect=fixed;html=1;points=[];align=left;fontSize=12;image=img/lib/azure2/compute/Function_Apps.svg;verticalAlign=middle;labelPosition=right;verticalLabelPosition=middle;" parent="1" vertex="1">
                    <mxGeometry x="1105.42" y="1096.5" width="68" height="60" as="geometry"/>
                </mxCell>
                <mxCell id="RMw8YCrxrhKPK7vOaBMo-130" value="Subscription Saving" style="rounded=1;whiteSpace=wrap;html=1;align=left;verticalAlign=top;fontColor=#0066CC;dashed=1;strokeColor=#3399FF;fillColor=default;" parent="1" vertex="1">
                    <mxGeometry x="239.83999999999997" y="1400" width="706" height="100" as="geometry"/>
                </mxCell>
                <mxCell id="RMw8YCrxrhKPK7vOaBMo-142" style="edgeStyle=orthogonalEdgeStyle;rounded=0;orthogonalLoop=1;jettySize=auto;html=1;exitX=0.5;exitY=0;exitDx=0;exitDy=0;entryX=0.5;entryY=1;entryDx=0;entryDy=0;startArrow=classic;startFill=1;strokeColor=#3399FF;" parent="1" source="RMw8YCrxrhKPK7vOaBMo-131" target="RMw8YCrxrhKPK7vOaBMo-99" edge="1">
                    <mxGeometry relative="1" as="geometry"/>
                </mxCell>
                <mxCell id="RMw8YCrxrhKPK7vOaBMo-131" value="MS CORE" style="rounded=1;whiteSpace=wrap;html=1;fillColor=#ffe6cc;strokeColor=#d79b00;" parent="1" vertex="1">
                    <mxGeometry x="328.34000000000003" y="1420" width="516.58" height="60" as="geometry"/>
                </mxCell>
                <mxCell id="RMw8YCrxrhKPK7vOaBMo-137" value="" style="image;sketch=0;aspect=fixed;html=1;points=[];align=center;fontSize=12;image=img/lib/mscae/Load_Balancer_feature.svg;" parent="1" vertex="1">
                    <mxGeometry x="923.4200000000001" y="516" width="50" height="50" as="geometry"/>
                </mxCell>
                <mxCell id="RMw8YCrxrhKPK7vOaBMo-138" value="Express Router" style="verticalLabelPosition=middle;html=1;verticalAlign=middle;align=left;strokeColor=none;fillColor=#00BEF2;shape=mxgraph.azure.express_route;pointerEvents=1;labelPosition=right;" parent="1" vertex="1">
                    <mxGeometry x="567.92" y="1580" width="50" height="30" as="geometry"/>
                </mxCell>
                <mxCell id="RMw8YCrxrhKPK7vOaBMo-140" style="edgeStyle=orthogonalEdgeStyle;rounded=0;orthogonalLoop=1;jettySize=auto;html=1;entryX=0.5;entryY=0.01;entryDx=0;entryDy=0;entryPerimeter=0;startArrow=classic;startFill=1;exitX=0.5;exitY=1;exitDx=0;exitDy=0;strokeColor=#3399FF;" parent="1" source="RMw8YCrxrhKPK7vOaBMo-131" target="RMw8YCrxrhKPK7vOaBMo-138" edge="1">
                    <mxGeometry relative="1" as="geometry"/>
                </mxCell>
                <mxCell id="RMw8YCrxrhKPK7vOaBMo-141" style="edgeStyle=orthogonalEdgeStyle;rounded=0;orthogonalLoop=1;jettySize=auto;html=1;entryX=0.5;entryY=0;entryDx=0;entryDy=0;startArrow=classic;startFill=1;strokeColor=#3399FF;" parent="1" source="RMw8YCrxrhKPK7vOaBMo-138" target="RMw8YCrxrhKPK7vOaBMo-103" edge="1">
                    <mxGeometry relative="1" as="geometry"/>
                </mxCell>
                <mxCell id="RMw8YCrxrhKPK7vOaBMo-147" value="WAF" style="image;aspect=fixed;html=1;points=[];align=center;fontSize=12;image=img/lib/azure2/networking/Web_Application_Firewall_Policies_WAF.svg;" parent="1" vertex="1">
                    <mxGeometry x="1032.92" y="221.46" width="52.92" height="52.92" as="geometry"/>
                </mxCell>
                <mxCell id="RMw8YCrxrhKPK7vOaBMo-166" style="edgeStyle=orthogonalEdgeStyle;rounded=0;orthogonalLoop=1;jettySize=auto;html=1;exitX=0.5;exitY=1;exitDx=0;exitDy=0;entryX=0.5;entryY=0;entryDx=0;entryDy=0;strokeColor=#3399FF;" parent="1" source="RMw8YCrxrhKPK7vOaBMo-148" target="RMw8YCrxrhKPK7vOaBMo-154" edge="1">
                    <mxGeometry relative="1" as="geometry"/>
                </mxCell>
                <mxCell id="RMw8YCrxrhKPK7vOaBMo-148" value="API UX Wallet Web" style="rounded=1;whiteSpace=wrap;html=1;fillColor=#dae8fc;strokeColor=#6c8ebf;" parent="1" vertex="1">
                    <mxGeometry x="723.2099999999999" y="230" width="270" height="40" as="geometry"/>
                </mxCell>
                <mxCell id="RMw8YCrxrhKPK7vOaBMo-149" value="Wallet&lt;div&gt;MS UX&lt;/div&gt;" style="rounded=1;whiteSpace=wrap;html=1;fillColor=#ffe6cc;strokeColor=#d79b00;" parent="1" vertex="1">
                    <mxGeometry x="92.92" y="375" width="107" height="60" as="geometry"/>
                </mxCell>
                <mxCell id="RMw8YCrxrhKPK7vOaBMo-150" value="Transaction&lt;div&gt;MS UX&lt;/div&gt;" style="rounded=1;whiteSpace=wrap;html=1;fillColor=#dae8fc;strokeColor=#6c8ebf;" parent="1" vertex="1">
                    <mxGeometry x="216.8399999999999" y="375" width="107" height="60" as="geometry"/>
                </mxCell>
                <mxCell id="RMw8YCrxrhKPK7vOaBMo-152" value="Notification&lt;div&gt;&lt;span style=&quot;background-color: initial;&quot;&gt;MS UX&lt;/span&gt;&lt;/div&gt;" style="rounded=1;whiteSpace=wrap;html=1;fillColor=#f8cecc;strokeColor=#b85450;" parent="1" vertex="1">
                    <mxGeometry x="465.42" y="375" width="107" height="60" as="geometry"/>
                </mxCell>
                <mxCell id="RMw8YCrxrhKPK7vOaBMo-177" style="edgeStyle=orthogonalEdgeStyle;rounded=0;orthogonalLoop=1;jettySize=auto;html=1;startArrow=classic;startFill=1;strokeColor=#3399FF;" parent="1" source="RMw8YCrxrhKPK7vOaBMo-155" target="RMw8YCrxrhKPK7vOaBMo-169" edge="1">
                    <mxGeometry relative="1" as="geometry"/>
                </mxCell>
                <mxCell id="RMw8YCrxrhKPK7vOaBMo-155" value="" style="rounded=1;whiteSpace=wrap;html=1;fontColor=#00FF80;strokeColor=#3399FF;strokeWidth=1;dashed=1;" parent="1" vertex="1">
                    <mxGeometry x="791.2900000000001" y="45" width="136.26" height="110" as="geometry"/>
                </mxCell>
                <mxCell id="RMw8YCrxrhKPK7vOaBMo-160" value="" style="verticalLabelPosition=bottom;html=1;verticalAlign=top;align=center;strokeColor=none;fillColor=#00BEF2;shape=mxgraph.azure.laptop;pointerEvents=1;" parent="1" vertex="1">
                    <mxGeometry x="816.5500000000002" y="65" width="83.33" height="50" as="geometry"/>
                </mxCell>
                <mxCell id="RMw8YCrxrhKPK7vOaBMo-164" style="edgeStyle=orthogonalEdgeStyle;rounded=0;orthogonalLoop=1;jettySize=auto;html=1;startArrow=classic;startFill=1;strokeColor=#3399FF;" parent="1" source="RMw8YCrxrhKPK7vOaBMo-161" target="RMw8YCrxrhKPK7vOaBMo-148" edge="1">
                    <mxGeometry relative="1" as="geometry"/>
                </mxCell>
                <mxCell id="RMw8YCrxrhKPK7vOaBMo-161" value="Web Client" style="text;html=1;align=center;verticalAlign=middle;resizable=0;points=[];autosize=1;strokeColor=none;fillColor=none;fontColor=#0066CC;" parent="1" vertex="1">
                    <mxGeometry x="818.21" y="125" width="80" height="30" as="geometry"/>
                </mxCell>
                <mxCell id="RMw8YCrxrhKPK7vOaBMo-162" style="edgeStyle=orthogonalEdgeStyle;rounded=0;orthogonalLoop=1;jettySize=auto;html=1;entryX=0.5;entryY=0;entryDx=0;entryDy=0;startArrow=classic;startFill=1;strokeColor=#3399FF;" parent="1" source="RMw8YCrxrhKPK7vOaBMo-1" target="RMw8YCrxrhKPK7vOaBMo-14" edge="1">
                    <mxGeometry relative="1" as="geometry"/>
                </mxCell>
                <mxCell id="RMw8YCrxrhKPK7vOaBMo-167" style="edgeStyle=orthogonalEdgeStyle;rounded=0;orthogonalLoop=1;jettySize=auto;html=1;exitX=0.5;exitY=1;exitDx=0;exitDy=0;entryX=0.5;entryY=0;entryDx=0;entryDy=0;startArrow=classic;startFill=1;strokeColor=#3399FF;" parent="1" source="RMw8YCrxrhKPK7vOaBMo-17" target="RMw8YCrxrhKPK7vOaBMo-36" edge="1">
                    <mxGeometry relative="1" as="geometry"/>
                </mxCell>
                <mxCell id="RMw8YCrxrhKPK7vOaBMo-172" style="edgeStyle=orthogonalEdgeStyle;rounded=0;orthogonalLoop=1;jettySize=auto;html=1;entryX=0.5;entryY=0;entryDx=0;entryDy=0;startArrow=classic;startFill=1;strokeColor=#3399FF;" parent="1" source="RMw8YCrxrhKPK7vOaBMo-169" target="RMw8YCrxrhKPK7vOaBMo-170" edge="1">
                    <mxGeometry relative="1" as="geometry">
                        <Array as="points">
                            <mxPoint x="631" y="490"/>
                            <mxPoint x="375" y="490"/>
                        </Array>
                    </mxGeometry>
                </mxCell>
                <mxCell id="RMw8YCrxrhKPK7vOaBMo-169" value="API UX Login" style="rounded=1;whiteSpace=wrap;html=1;fillColor=#dae8fc;strokeColor=#6c8ebf;" parent="1" vertex="1">
                    <mxGeometry x="561.89" y="227.92" width="137.91" height="40" as="geometry"/>
                </mxCell>
                <mxCell id="RMw8YCrxrhKPK7vOaBMo-173" style="edgeStyle=orthogonalEdgeStyle;rounded=0;orthogonalLoop=1;jettySize=auto;html=1;startArrow=classic;startFill=1;strokeColor=#3399FF;" parent="1" source="RMw8YCrxrhKPK7vOaBMo-170" target="RMw8YCrxrhKPK7vOaBMo-48" edge="1">
                    <mxGeometry relative="1" as="geometry">
                        <Array as="points">
                            <mxPoint x="370" y="640"/>
                            <mxPoint x="644" y="640"/>
                        </Array>
                    </mxGeometry>
                </mxCell>
                <mxCell id="RMw8YCrxrhKPK7vOaBMo-170" value="API BS Login" style="rounded=1;whiteSpace=wrap;html=1;fillColor=#dae8fc;strokeColor=#6c8ebf;" parent="1" vertex="1">
                    <mxGeometry x="239.83999999999997" y="518.5" width="270" height="40" as="geometry"/>
                </mxCell>
                <mxCell id="RMw8YCrxrhKPK7vOaBMo-174" value="Security&lt;div&gt;MS UX&lt;/div&gt;" style="rounded=1;whiteSpace=wrap;html=1;fillColor=#d5e8d4;strokeColor=#82b366;" parent="1" vertex="1">
                    <mxGeometry x="341.34" y="375" width="107" height="60" as="geometry"/>
                </mxCell>
                <mxCell id="RMw8YCrxrhKPK7vOaBMo-175" value="Security&lt;div&gt;MS UX&lt;/div&gt;" style="rounded=1;whiteSpace=wrap;html=1;fillColor=#d5e8d4;strokeColor=#82b366;" parent="1" vertex="1">
                    <mxGeometry x="965.9200000000001" y="375" width="107" height="60" as="geometry"/>
                </mxCell>
                <mxCell id="g77kf9NWsWpVpcApMxO6-1" value="&lt;font color=&quot;#0066cc&quot;&gt;DiseÃ±o de la soluciÃ³n Billetera Digital&lt;/font&gt;" style="swimlane;whiteSpace=wrap;html=1;strokeColor=#6c8ebf;fillColor=#dae8fc;" parent="1" vertex="1">
                    <mxGeometry x="10" y="10" width="1320" height="1870" as="geometry"/>
                </mxCell>
            </root>
        </mxGraphModel>
    </diagram>
</mxfile>